Coordinates
version=1
nRows=54
nColumns=12
inDegrees=yes

Units are S.I. units (second, meters, Newtons, ...)
Angles are in degrees

endheader
time	SC_y	SC_z	SC_x	AC_y	AC_z	AC_x	GH_y	GH_z	GH_yy	EL_x	PS_y
       0.0              -57.89          21.06          45.37          65.51         -14.72          -5.78         -109.4          47.44         -161.9          60.62          128.5
   0.04602              -57.89          21.05          45.37          65.51         -14.72         -5.778         -109.3          47.44         -161.9          60.63          128.5
   0.09205              -57.88          21.05          45.38           65.5         -14.72         -5.775         -109.3          47.44         -161.9          60.65          128.5
    0.1381              -57.88          21.05          45.38           65.5         -14.72         -5.772         -109.3          47.44         -161.8          60.66          128.5
    0.1841              -57.87          21.05          45.39          65.49         -14.72         -5.769         -109.2          47.45         -161.8          60.67          128.5
    0.2301              -57.86          21.04           45.4          65.49         -14.72         -5.766         -109.2          47.45         -161.7          60.68          128.4
    0.2761              -57.86          21.04          45.41          65.49         -14.72         -5.763         -109.1          47.45         -161.7           60.7          128.4
    0.3222              -57.85          21.03          45.41          65.48         -14.73         -5.759         -109.1          47.46         -161.7          60.71          128.4
    0.3682              -57.84          21.03          45.42          65.48         -14.73         -5.755         -109.0          47.46         -161.6          60.73          128.4
    0.4142              -57.84          21.03          45.43          65.47         -14.73         -5.751         -109.0          47.46         -161.5          60.74          128.4
    0.4602              -57.83          21.02          45.44          65.46         -14.73         -5.746         -108.9          47.47         -161.5          60.76          128.4
    0.5063              -57.82          21.02          45.45          65.46         -14.73         -5.742         -108.9          47.47         -161.4          60.78          128.4
    0.5523              -57.81          21.01          45.47          65.45         -14.73         -5.736         -108.8          47.48         -161.3           60.8          128.4
    0.5983               -57.8           21.0          45.48          65.44         -14.73         -5.731         -108.7          47.48         -161.3          60.83          128.4
    0.6443              -57.79           21.0          45.49          65.43         -14.73         -5.725         -108.6          47.49         -161.2          60.85          128.4
    0.6904              -57.77          20.99          45.51          65.43         -14.73         -5.718         -108.6          47.49         -161.1          60.88          128.3
    0.7364              -57.76          20.98          45.52          65.42         -14.73         -5.711         -108.5           47.5         -161.0          60.91          128.3
    0.7824              -57.74          20.97          45.54           65.4         -14.73         -5.703         -108.4          47.51         -160.9          60.94          128.3
    0.8284              -57.73          20.96          45.56          65.39         -14.73         -5.695         -108.3          47.52         -160.8          60.97          128.3
    0.8745              -57.71          20.95          45.58          65.38         -14.73         -5.685         -108.1          47.53         -160.6          61.01          128.3
    0.9205              -57.69          20.94           45.6          65.37         -14.73         -5.675         -108.0          47.54         -160.5          61.05          128.2
    0.9665              -57.67          20.93          45.63          65.35         -14.73         -5.664         -107.9          47.55         -160.3           61.1          128.2
     1.013              -57.65          20.92          45.66          65.33         -14.74         -5.651         -107.7          47.56         -160.2          61.15          128.2
     1.059              -57.62           20.9          45.69          65.32         -14.74         -5.637         -107.5          47.57         -160.0          61.21          128.2
     1.105              -57.59          20.88          45.72           65.3         -14.74         -5.622         -107.3          47.59         -159.8          61.27          128.1
     1.151              -57.56          20.87          45.76          65.27         -14.74         -5.605         -107.1           47.6         -159.5          61.34          128.1
     1.197              -57.52          20.84          45.81          65.25         -14.74         -5.586         -106.9          47.62         -159.3          61.42          128.0
     1.243              -57.48          20.82          45.86          65.22         -14.74         -5.564         -106.6          47.64         -159.0          61.51          128.0
     1.289              -57.43          20.79          45.91          65.18         -14.75          -5.54         -106.3          47.67         -158.6          61.61          127.9
     1.335              -57.38          20.76          45.98          65.15         -14.75         -5.512         -105.9          47.69         -158.2          61.72          127.9
     1.381              -57.32          20.73          46.05           65.1         -14.75          -5.48         -105.5          47.72         -157.8          61.85          127.8
     1.427              -57.25          20.69          46.13          65.05         -14.76         -5.444         -105.0          47.76         -157.3           62.0          127.7
     1.473              -57.17          20.64          46.22           65.0         -14.76         -5.402         -104.5           47.8         -156.7          62.17          127.6
     1.519              -57.08          20.59          46.34          64.93         -14.76         -5.353         -103.8          47.84         -156.0          62.37          127.5
     1.565              -56.97          20.53          46.46          64.85         -14.77         -5.296         -103.1           47.9         -155.3           62.6          127.4
     1.611              -56.84          20.46          46.62          64.76         -14.78         -5.229         -102.2          47.96         -154.3          62.88          127.3
     1.657              -56.69          20.37           46.8          64.65         -14.78         -5.149         -101.2          48.04         -153.2           63.2          127.1
     1.703              -56.51          20.26          47.02          64.52         -14.79         -5.054         -99.97          48.13         -151.9          63.59          126.9
     1.749              -56.29          20.14          47.28          64.37         -14.81         -4.938         -98.48          48.24         -150.3          64.07          126.6
     1.795              -56.02          19.98           47.6          64.18         -14.82         -4.796         -96.65          48.38         -148.3          64.64          126.3
     1.841              -55.69          19.79           48.0          63.94         -14.84         -4.622         -94.39          48.54         -145.9          65.36          125.9
     1.887              -55.27          19.55          48.49          63.64         -14.86         -4.404         -91.57          48.75         -142.9          66.25          125.4
     1.933              -54.75          19.25          49.11          63.27         -14.88          -4.13         -88.03          49.02         -139.1          67.37          124.8
     1.979              -54.08          18.87          49.91           62.8         -14.92         -3.782         -83.52          49.35         -134.3          68.79          124.0
     2.025              -53.23          18.39          50.92           62.2         -14.96         -3.335         -77.75          49.78         -128.1          70.61          123.1
     2.071              -52.14          17.76          52.22          61.42         -15.02         -2.763         -70.35          50.33         -120.2          72.95          121.8
     2.117              -50.75          16.96          53.88          60.43         -15.09         -2.032         -60.89          51.03         -110.1          75.94          120.2
     2.163               -49.0          15.96          55.97          59.18         -15.18         -1.112          -49.0          51.91         -97.39           79.7          118.1
     2.209              -46.87          14.73          58.52          57.66         -15.29       0.008409         -34.51          52.98         -81.89          84.28          115.6
     2.255              -44.39          13.31          61.47           55.9         -15.41          1.307         -17.71          54.23         -63.93          89.59          112.8
     2.301              -41.71          11.77          64.66          53.99         -15.55          2.714         0.4784          55.57         -44.48          95.34          109.6
     2.347              -39.04          10.24          67.86          52.09         -15.69           4.12          18.67          56.92         -25.03          101.1          106.5
     2.393              -36.56          8.818          70.81          50.33         -15.81          5.419          35.46          58.17         -7.071          106.4          103.6
     2.439              -34.43          7.593          73.35          48.81         -15.92          6.539          49.96          59.24          8.425          111.0          101.2
